<svg width="329" height="317" viewBox="0 0 329 317" fill="none" xmlns="http://www.w3.org/2000/svg">
<path d="M174.933 119.385C168.987 125.333 159.368 125.358 153.45 119.438C147.533 113.519 147.558 103.895 153.504 97.947C159.452 91.9985 169.07 91.9735 174.989 97.8933C180.908 103.813 180.881 113.432 174.933 119.385Z" fill="#FFCF52"/>
<path d="M174.933 119.385C168.987 125.333 159.368 125.358 153.45 119.438C147.533 113.519 147.558 103.895 153.504 97.947C159.452 91.9985 169.07 91.9735 174.989 97.8933C180.908 103.813 180.881 113.432 174.933 119.385Z" fill="#FFCF52"/>
<path d="M122.526 54.1453C121.242 52.8395 121.419 50.7223 122.955 49.7259C129.92 45.2078 148.536 34.3276 167.096 33.7476C190.552 33.0146 200.359 41.8109 207.321 37.4127C214.283 33.0146 214.29 14.0275 219.251 7.95168C222.736 3.68425 230.268 1.59561 234.443 0.730331C236.06 0.395218 237.549 1.53856 237.746 3.17818C239.35 16.5167 245.467 71.8483 241.04 106.056C236.987 137.369 225.458 149.637 221.021 153.285C220.01 154.116 218.602 153.958 217.647 153.062L202.564 138.918C201.361 137.789 201.303 135.908 202.342 134.627C208.668 126.827 212.459 116.883 212.459 106.056C212.459 80.9916 192.15 60.6746 167.096 60.6746C157.336 60.6746 148.296 63.757 140.897 69.0016C139.641 69.8924 137.911 69.7993 136.831 68.7007L122.526 54.1453Z" fill="#2A5C6B"/>
<path d="M207.193 162.759C208.477 164.065 208.3 166.182 206.764 167.178C199.799 171.696 181.183 182.577 162.623 183.157C139.166 183.89 129.36 175.093 122.398 179.491C115.436 183.89 115.429 202.877 110.468 208.952C106.983 213.22 99.4506 215.309 95.2754 216.174C93.6583 216.509 92.1697 215.366 91.9726 213.726C90.3689 200.388 84.2518 145.056 88.6791 110.848C92.7316 79.5355 104.261 67.2672 108.698 63.6195C109.709 62.7881 111.117 62.9463 112.072 63.8419L127.155 77.9866C128.357 79.1147 128.416 80.9964 127.377 82.2773C121.051 90.0772 117.26 100.021 117.26 110.848C117.26 135.913 137.569 156.23 162.623 156.23C172.383 156.23 181.423 153.147 188.821 147.903C190.078 147.012 191.808 147.105 192.888 148.203L207.193 162.759Z" fill="#2A5C6B"/>
<path d="M174.933 119.385C168.987 125.333 159.368 125.358 153.45 119.438C147.533 113.519 147.558 103.895 153.504 97.947C159.452 91.9985 169.07 91.9735 174.989 97.8933C180.908 103.813 180.881 113.432 174.933 119.385Z" fill="#FFCF52"/>
<path d="M0.601562 316.489V275.617H17.9221C19.8019 275.617 21.5378 276.011 23.1298 276.797C24.7218 277.584 26.0933 278.62 27.2442 279.906C28.395 281.192 29.2965 282.65 29.9487 284.281C30.6009 285.912 30.9269 287.553 30.9269 289.203C30.9269 290.853 30.62 292.609 30.0063 294.24C29.3925 295.871 28.5293 297.32 27.4168 298.586C26.3043 299.853 24.9616 300.87 23.3888 301.637C21.8159 302.405 20.0896 302.789 18.2099 302.789H8.54255V316.489H0.601562ZM8.54255 295.823H17.7495C19.2073 295.823 20.4253 295.228 21.4035 294.038C22.3817 292.849 22.8709 291.237 22.8709 289.203C22.8709 288.167 22.7174 287.236 22.4105 286.411C22.1036 285.586 21.7008 284.885 21.2021 284.31C20.7034 283.734 20.1184 283.302 19.447 283.015C18.7757 282.727 18.0948 282.583 17.4042 282.583H8.54255V295.823Z" fill="#2A5C6B"/>
<path d="M45.0811 316.489V275.617H63.1497C65.0294 275.617 66.7653 276.011 68.3574 276.797C69.9494 277.584 71.3209 278.62 72.4717 279.906C73.6226 281.192 74.5241 282.65 75.1763 284.281C75.8284 285.912 76.1545 287.553 76.1545 289.203C76.1545 291.851 75.4928 294.259 74.1693 296.427C72.8458 298.596 71.0523 300.16 68.7889 301.119L78.111 316.489H69.1917L60.848 302.789H53.022V316.489H45.0811ZM53.022 295.823H62.9771C63.7059 295.823 64.3869 295.65 65.0199 295.305C65.6528 294.96 66.1995 294.489 66.6598 293.895C67.1202 293.3 67.4846 292.599 67.7532 291.793C68.0217 290.987 68.156 290.124 68.156 289.203C68.156 288.282 68.0025 287.361 67.6956 286.555C67.3887 285.749 66.9763 285.049 66.4584 284.454C65.9405 283.859 65.3459 283.398 64.6746 283.072C64.0032 282.746 63.3223 282.583 62.6318 282.583H53.022V295.823Z" fill="#2A5C6B"/>
<path d="M91.9785 316.489V275.617H99.9195V316.489H91.9785Z" fill="#2A5C6B"/>
<path d="M141.408 286.325C141.14 286.056 140.651 285.691 139.941 285.231C139.231 284.77 138.368 284.32 137.352 283.878C136.335 283.437 135.232 283.063 134.043 282.756C132.854 282.449 131.645 282.295 130.418 282.295C128.231 282.295 126.6 282.698 125.526 283.504C124.452 284.31 123.915 285.442 123.915 286.9C123.915 287.745 124.117 288.445 124.519 289.002C124.922 289.558 125.507 290.047 126.274 290.469C127.042 290.892 128.01 291.275 129.18 291.621C130.35 291.966 131.703 292.331 133.237 292.715C135.232 293.252 137.045 293.828 138.675 294.442C140.305 295.056 141.686 295.823 142.818 296.744C143.95 297.665 144.823 298.769 145.436 300.054C146.05 301.34 146.357 302.923 146.357 304.803C146.357 306.991 145.945 308.862 145.12 310.416C144.295 311.97 143.183 313.227 141.782 314.187C140.382 315.146 138.771 315.847 136.949 316.288C135.126 316.729 133.218 316.95 131.223 316.95C128.154 316.95 125.124 316.489 122.131 315.568C119.139 314.647 116.454 313.342 114.075 311.654L117.585 304.803C117.931 305.149 118.554 305.6 119.456 306.156C120.357 306.713 121.422 307.269 122.649 307.826C123.877 308.382 125.239 308.852 126.735 309.236C128.231 309.62 129.765 309.812 131.338 309.812C135.712 309.812 137.898 308.411 137.898 305.609C137.898 304.727 137.649 303.978 137.15 303.364C136.651 302.75 135.942 302.213 135.021 301.752C134.1 301.292 132.988 300.87 131.683 300.486C130.379 300.102 128.921 299.68 127.31 299.22C125.354 298.682 123.656 298.097 122.218 297.464C120.779 296.831 119.58 296.082 118.621 295.219C117.662 294.355 116.943 293.357 116.463 292.225C115.984 291.093 115.744 289.74 115.744 288.167C115.744 286.094 116.128 284.252 116.895 282.64C117.662 281.029 118.727 279.685 120.088 278.611C121.45 277.536 123.033 276.721 124.836 276.164C126.639 275.608 128.576 275.33 130.648 275.33C133.525 275.33 136.172 275.781 138.589 276.682C141.006 277.584 143.115 278.649 144.918 279.877L141.408 286.325Z" fill="#2A5C6B"/>
<path d="M189.344 309.524V316.489H160.975V275.617H188.826V282.583H168.916V292.427H186.121V298.874H168.916V309.524H189.344Z" fill="#2A5C6B"/>
<path d="M212.129 290.297V316.489H204.188V275.617H210.346L231.637 302.443V275.675H239.578V316.489H233.133L212.129 290.297Z" fill="#2A5C6B"/>
<path d="M281.064 286.325C280.795 286.056 280.306 285.691 279.596 285.231C278.887 284.77 278.023 284.32 277.007 283.878C275.99 283.437 274.887 283.063 273.698 282.756C272.509 282.449 271.3 282.295 270.073 282.295C267.886 282.295 266.256 282.698 265.182 283.504C264.107 284.31 263.57 285.442 263.57 286.9C263.57 287.745 263.772 288.445 264.175 289.002C264.577 289.558 265.162 290.047 265.93 290.469C266.697 290.892 267.666 291.275 268.836 291.621C270.006 291.966 271.358 292.331 272.892 292.715C274.887 293.252 276.7 293.828 278.33 294.442C279.961 295.056 281.342 295.823 282.473 296.744C283.605 297.665 284.478 298.769 285.092 300.054C285.705 301.34 286.012 302.923 286.012 304.803C286.012 306.991 285.6 308.862 284.775 310.416C283.95 311.97 282.838 313.227 281.438 314.187C280.037 315.146 278.426 315.847 276.604 316.288C274.782 316.729 272.873 316.95 270.878 316.95C267.809 316.95 264.779 316.489 261.787 315.568C258.794 314.647 256.109 313.342 253.73 311.654L257.241 304.803C257.586 305.149 258.209 305.6 259.111 306.156C260.012 306.713 261.077 307.269 262.304 307.826C263.532 308.382 264.894 308.852 266.39 309.236C267.886 309.62 269.421 309.812 270.993 309.812C275.367 309.812 277.553 308.411 277.553 305.609C277.553 304.727 277.304 303.978 276.805 303.364C276.307 302.75 275.597 302.213 274.676 301.752C273.756 301.292 272.643 300.87 271.339 300.486C270.034 300.102 268.577 299.68 266.965 299.22C265.009 298.682 263.311 298.097 261.873 297.464C260.434 296.831 259.235 296.082 258.276 295.219C257.317 294.355 256.598 293.357 256.119 292.225C255.639 291.093 255.399 289.74 255.399 288.167C255.399 286.094 255.783 284.252 256.55 282.64C257.317 281.029 258.382 279.685 259.744 278.611C261.106 277.536 262.688 276.721 264.491 276.164C266.294 275.608 268.231 275.33 270.303 275.33C273.18 275.33 275.827 275.781 278.244 276.682C280.661 277.584 282.771 278.649 284.574 279.877L281.064 286.325Z" fill="#2A5C6B"/>
<path d="M329 309.524V316.489H300.631V275.617H328.482V282.583H308.572V292.427H325.777V298.874H308.572V309.524H329Z" fill="#2A5C6B"/>
</svg>
