<svg width="156" height="217" viewBox="0 0 156 217" fill="none" xmlns="http://www.w3.org/2000/svg">
<path d="M87.9332 119.385C81.9871 125.333 72.3677 125.358 66.4503 119.438C60.533 113.519 60.5579 103.895 66.504 97.947C72.4521 91.9985 82.0695 91.9735 87.9888 97.8933C93.9081 103.813 93.8813 113.432 87.9332 119.385Z" fill="#FFCF52"/>
<path d="M87.9332 119.385C81.9871 125.333 72.3677 125.358 66.4503 119.438C60.533 113.519 60.5579 103.895 66.504 97.947C72.4521 91.9985 82.0695 91.9735 87.9888 97.8933C93.9081 103.813 93.8813 113.432 87.9332 119.385Z" fill="#FFCF52"/>
<path d="M35.5256 54.1453C34.2422 52.8395 34.4187 50.7223 35.9547 49.7259C42.9196 45.2078 61.5362 34.3276 80.0956 33.7476C103.552 33.0146 113.359 41.8109 120.321 37.4127C127.283 33.0146 127.29 14.0275 132.251 7.95167C135.736 3.68425 143.268 1.59561 147.443 0.730336C149.06 0.395213 150.549 1.53856 150.746 3.17818C152.35 16.5167 158.467 71.8483 154.04 106.056C149.987 137.369 138.458 149.637 134.021 153.285C133.01 154.116 131.602 153.958 130.647 153.062L115.564 138.918C114.361 137.789 114.303 135.908 115.342 134.627C121.668 126.827 125.459 116.883 125.459 106.056C125.459 80.9916 105.15 60.6746 80.0956 60.6746C70.3358 60.6746 61.2959 63.757 53.8975 69.0016C52.6408 69.8924 50.9106 69.7993 49.8309 68.7007L35.5256 54.1453Z" fill="#2A5C6B"/>
<path d="M120.193 162.759C121.477 164.065 121.3 166.182 119.764 167.178C112.799 171.696 94.1825 182.577 75.6232 183.157C52.1663 183.89 42.3601 175.093 35.398 179.491C28.436 183.89 28.429 202.877 23.4677 208.953C19.9831 213.22 12.4506 215.309 8.27537 216.174C6.6583 216.509 5.16971 215.366 4.97258 213.726C3.3689 200.388 -2.74815 145.056 1.67907 110.848C5.73164 79.5355 17.2608 67.2672 21.6976 63.6195C22.7089 62.7881 24.1171 62.9463 25.0721 63.8419L40.1545 77.9866C41.3575 79.1147 41.4156 80.9964 40.3768 82.2773C34.0507 90.0772 30.2598 100.021 30.2598 110.848C30.2598 135.913 50.5688 156.23 75.6232 156.23C85.383 156.23 94.4228 153.147 101.821 147.903C103.078 147.012 104.808 147.105 105.888 148.203L120.193 162.759Z" fill="#2A5C6B"/>
<path d="M87.9332 119.385C81.9871 125.333 72.3677 125.358 66.4503 119.438C60.533 113.519 60.5579 103.895 66.504 97.947C72.4521 91.9985 82.0695 91.9735 87.9888 97.8933C93.9081 103.813 93.8813 113.432 87.9332 119.385Z" fill="#FFCF52"/>
</svg>
